<?xml version="1.0" encoding="UTF-8" standalone="no"?>
<!DOCTYPE svg PUBLIC "-//W3C//DTD SVG 1.1//EN"
 "http://www.w3.org/Graphics/SVG/1.1/DTD/svg11.dtd">
<!-- Generated by graphviz version 2.36.0 (20140111.2315)
 -->
<!-- Title: models_diagram Pages: 1 -->
<svg width="337pt" height="230pt"
 viewBox="0.00 0.00 337.00 230.00" xmlns="http://www.w3.org/2000/svg" xmlns:xlink="http://www.w3.org/1999/xlink">
<g id="graph0" class="graph" transform="scale(1 1) rotate(0) translate(4 226)">
<title>models_diagram</title>
<polygon fill="none" stroke="none" points="-4,4 -4,-226 333,-226 333,4 -4,4"/>
<!-- _diagram_info -->
<g id="node1" class="node"><title>_diagram_info</title>
<text text-anchor="start" x="7" y="-207.6" font-family="Times,serif" font-size="13.00">Models diagram</text>
<text text-anchor="start" x="7" y="-193.6" font-family="Times,serif" font-size="13.00">Date: Apr 15 2016 &#45; 21:42</text>
<text text-anchor="start" x="7" y="-179.6" font-family="Times,serif" font-size="13.00">Migration version: 20160416021204</text>
<text text-anchor="start" x="7" y="-165.6" font-family="Times,serif" font-size="13.00">Generated by RailRoady 1.4.2</text>
<text text-anchor="start" x="7" y="-151.6" font-family="Times,serif" font-size="13.00">http://railroady.prestonlee.com</text>
</g>
<!-- Inventario -->
<g id="node2" class="node"><title>Inventario</title>
<ellipse fill="none" stroke="black" cx="280" cy="-18" rx="46.1964" ry="18"/>
<text text-anchor="middle" x="280" y="-14.3" font-family="Times,serif" font-size="14.00">Inventario</text>
</g>
<!-- Trabajador -->
<g id="node3" class="node"><title>Trabajador</title>
<ellipse fill="none" stroke="black" cx="280" cy="-183" rx="49.0941" ry="18"/>
<text text-anchor="middle" x="280" y="-179.3" font-family="Times,serif" font-size="14.00">Trabajador</text>
</g>
<!-- Operacion -->
<g id="node4" class="node"><title>Operacion</title>
<ellipse fill="none" stroke="black" cx="280" cy="-90" rx="47.169" ry="18"/>
<text text-anchor="middle" x="280" y="-86.3" font-family="Times,serif" font-size="14.00">Operacion</text>
</g>
<!-- Trabajador&#45;&gt;Operacion -->
<g id="edge1" class="edge"><title>Trabajador&#45;&gt;Operacion</title>
<path fill="none" stroke="#c9fc5c" d="M280,-156.729C280,-144.725 280,-130.362 280,-118.129"/>
<ellipse fill="none" stroke="#c9fc5c" cx="280" cy="-160.884" rx="4" ry="4"/>
<polygon fill="#c9fc5c" stroke="#c9fc5c" points="280,-118.04 284.5,-108.04 280,-113.04 280,-108.04 280,-108.04 280,-108.04 280,-113.04 275.5,-108.04 280,-118.04 280,-118.04"/>
</g>
<!-- Operacion&#45;&gt;Inventario -->
<g id="edge2" class="edge"><title>Operacion&#45;&gt;Inventario</title>
<path fill="none" stroke="#388e94" d="M280,-63.6398C280,-57.348 280,-50.6053 280,-44.3156"/>
<ellipse fill="none" stroke="#388e94" cx="280" cy="-67.6966" rx="4" ry="4"/>
<ellipse fill="#388e94" stroke="#388e94" cx="280" cy="-40.1043" rx="4" ry="4"/>
</g>
</g>
</svg>
