<?xml version="1.0" encoding="UTF-8" standalone="no"?>
<!DOCTYPE svg PUBLIC "-//W3C//DTD SVG 1.1//EN"
 "http://www.w3.org/Graphics/SVG/1.1/DTD/svg11.dtd">
<!-- Generated by graphviz version 2.36.0 (20140111.2315)
 -->
<!-- Title: models_diagram Pages: 1 -->
<svg width="483pt" height="418pt"
 viewBox="0.00 0.00 483.00 418.00" xmlns="http://www.w3.org/2000/svg" xmlns:xlink="http://www.w3.org/1999/xlink">
<g id="graph0" class="graph" transform="scale(1 1) rotate(0) translate(4 414)">
<title>models_diagram</title>
<polygon fill="none" stroke="none" points="-4,4 -4,-414 479,-414 479,4 -4,4"/>
<!-- _diagram_info -->
<g id="node1" class="node"><title>_diagram_info</title>
<text text-anchor="start" x="7" y="-380.6" font-family="Times,serif" font-size="13.00">Models diagram</text>
<text text-anchor="start" x="7" y="-366.6" font-family="Times,serif" font-size="13.00">Date: Apr 15 2016 &#45; 21:42</text>
<text text-anchor="start" x="7" y="-352.6" font-family="Times,serif" font-size="13.00">Migration version: 20160416021204</text>
<text text-anchor="start" x="7" y="-338.6" font-family="Times,serif" font-size="13.00">Generated by RailRoady 1.4.2</text>
<text text-anchor="start" x="7" y="-324.6" font-family="Times,serif" font-size="13.00">http://railroady.prestonlee.com</text>
</g>
<!-- Inventario -->
<g id="node2" class="node"><title>Inventario</title>
<path fill="none" stroke="black" d="M243,-1C243,-1 463,-1 463,-1 469,-1 475,-7 475,-13 475,-13 475,-125 475,-125 475,-131 469,-137 463,-137 463,-137 243,-137 243,-137 237,-137 231,-131 231,-125 231,-125 231,-13 231,-13 231,-7 237,-1 243,-1"/>
<text text-anchor="middle" x="353" y="-121.8" font-family="Times,serif" font-size="14.00">Inventario</text>
<polyline fill="none" stroke="black" points="231,-114 475,-114 "/>
<text text-anchor="start" x="239" y="-98.8" font-family="Times,serif" font-size="14.00">id :integer</text>
<text text-anchor="start" x="239" y="-83.8" font-family="Times,serif" font-size="14.00">numSerie :integer</text>
<text text-anchor="start" x="239" y="-68.8" font-family="Times,serif" font-size="14.00">tamaño :integer</text>
<text text-anchor="start" x="239" y="-53.8" font-family="Times,serif" font-size="14.00">descripcion :text</text>
<text text-anchor="start" x="239" y="-38.8" font-family="Times,serif" font-size="14.00">created_at :timestamp without time zone</text>
<text text-anchor="start" x="239" y="-23.8" font-family="Times,serif" font-size="14.00">updated_at :timestamp without time zone</text>
<text text-anchor="start" x="239" y="-8.8" font-family="Times,serif" font-size="14.00">operacion_id :integer</text>
</g>
<!-- Trabajador -->
<g id="node3" class="node"><title>Trabajador</title>
<path fill="none" stroke="black" d="M243,-303C243,-303 463,-303 463,-303 469,-303 475,-309 475,-315 475,-315 475,-397 475,-397 475,-403 469,-409 463,-409 463,-409 243,-409 243,-409 237,-409 231,-403 231,-397 231,-397 231,-315 231,-315 231,-309 237,-303 243,-303"/>
<text text-anchor="middle" x="353" y="-393.8" font-family="Times,serif" font-size="14.00">Trabajador</text>
<polyline fill="none" stroke="black" points="231,-386 475,-386 "/>
<text text-anchor="start" x="239" y="-370.8" font-family="Times,serif" font-size="14.00">id :integer</text>
<text text-anchor="start" x="239" y="-355.8" font-family="Times,serif" font-size="14.00">nombre :character varying</text>
<text text-anchor="start" x="239" y="-340.8" font-family="Times,serif" font-size="14.00">email :character varying</text>
<text text-anchor="start" x="239" y="-325.8" font-family="Times,serif" font-size="14.00">created_at :timestamp without time zone</text>
<text text-anchor="start" x="239" y="-310.8" font-family="Times,serif" font-size="14.00">updated_at :timestamp without time zone</text>
</g>
<!-- Operacion -->
<g id="node4" class="node"><title>Operacion</title>
<path fill="none" stroke="black" d="M243,-174.5C243,-174.5 463,-174.5 463,-174.5 469,-174.5 475,-180.5 475,-186.5 475,-186.5 475,-253.5 475,-253.5 475,-259.5 469,-265.5 463,-265.5 463,-265.5 243,-265.5 243,-265.5 237,-265.5 231,-259.5 231,-253.5 231,-253.5 231,-186.5 231,-186.5 231,-180.5 237,-174.5 243,-174.5"/>
<text text-anchor="middle" x="353" y="-250.3" font-family="Times,serif" font-size="14.00">Operacion</text>
<polyline fill="none" stroke="black" points="231,-242.5 475,-242.5 "/>
<text text-anchor="start" x="239" y="-227.3" font-family="Times,serif" font-size="14.00">id :integer</text>
<text text-anchor="start" x="239" y="-212.3" font-family="Times,serif" font-size="14.00">created_at :timestamp without time zone</text>
<text text-anchor="start" x="239" y="-197.3" font-family="Times,serif" font-size="14.00">updated_at :timestamp without time zone</text>
<text text-anchor="start" x="239" y="-182.3" font-family="Times,serif" font-size="14.00">trabajador_id :integer</text>
</g>
<!-- Trabajador&#45;&gt;Operacion -->
<g id="edge1" class="edge"><title>Trabajador&#45;&gt;Operacion</title>
<path fill="none" stroke="#61548b" d="M353,-294.722C353,-288.507 353,-282.214 353,-276.061"/>
<ellipse fill="none" stroke="#61548b" cx="353" cy="-298.808" rx="4" ry="4"/>
<polygon fill="#61548b" stroke="#61548b" points="353,-275.873 357.5,-265.873 353,-270.873 353,-265.873 353,-265.873 353,-265.873 353,-270.873 348.5,-265.873 353,-275.873 353,-275.873"/>
</g>
<!-- Operacion&#45;&gt;Inventario -->
<g id="edge2" class="edge"><title>Operacion&#45;&gt;Inventario</title>
<path fill="none" stroke="#3dd66f" d="M353,-166.209C353,-159.475 353,-152.483 353,-145.479"/>
<ellipse fill="none" stroke="#3dd66f" cx="353" cy="-170.295" rx="4" ry="4"/>
<ellipse fill="#3dd66f" stroke="#3dd66f" cx="353" cy="-141.267" rx="4" ry="4"/>
</g>
</g>
</svg>
